{"title":"The Mummy 1999  - BluRay x264 720p in Hindi AAC [ TaRa ].mkv","uid":15997057,"size":892717937,"categoryP":"video","categoryS":"hd___movies","magnet":"?xt=urn:btih:5576f0ca0c8f11b87959ac086cdb287501607a21&amp;dn=The+Mummy+1999++-+BluRay+x264+720p+in+Hindi+AAC+%5B+TaRa+%5D.mkv&amp;tr=udp%3A%2F%2Ftracker.leechers-paradise.org%3A6969&amp;tr=udp%3A%2F%2Fzer0day.ch%3A1337&amp;tr=udp%3A%2F%2Fopen.demonii.com%3A1337&amp;tr=udp%3A%2F%2Ftracker.coppersurfer.tk%3A6969&amp;tr=udp%3A%2F%2Fexodus.desync.com%3A6969","seeders":1,"leechers":0,"uploader":"MdTaRa","files":1,"time":1476076046,"description":"General\r\nComplete name               : The Mummy 1999  - BluRay x264 720p in Hindi AAC [ TaRa ].mkv\r\nFormat                      : Matroska\r\nFormat version              : Version 4 / Version 2\r\nFile size                   : 851 MiB\r\nDuration                    : 1h 59mn\r\nOverall bit rate            : 994 Kbps\r\n========================================================================\r\nVideo\r\nID                          : 1\r\nFormat                      : AVC\r\nFormat/Info                 : Advanced Video Codec\r\nFormat profile              :   \r\nFormat settings, CABAC      : Yes\r\nFormat settings, ReFrames   : 4 frames\r\nCodec ID                    : V_MPEG4/ISO/AVC\r\nDuration                    : 1h 59mn\r\nBit rate                    : 900 Kbps\r\nWidth                       : 1 280 pixels\r\nHeight                      : 544 pixels\r\nDisplay aspect ratio        : 2.35:1\r\nFrame rate mode             : Constant\r\nFrame rate                  : 25.000 fps\r\nColor space                 : YUV\r\nChroma subsampling          : 4:2:0\r\nBit depth                   : 8 bits\r\nScan type                   : Progressive\r\nBits/(Pixel*Frame)          : 0.052\r\nStream size                 : 767 MiB (90%)\r\nTitle                       : .....::::: TaRa :::::.....\r\n======================================================================\r\nAudio\r\nID                          : 2\r\nFormat                      : AAC\r\nFormat/Info                 : Advanced Audio Codec\r\nFormat profile              : LC\r\nCodec ID                    : A_AAC\r\nDuration                    : 1h 59mn\r\nBit rate                    : 96.0 Kbps\r\nChannel(s)                  : 2 channels\r\nChannel positions           : Front: L R\r\nSampling rate               : 48.0 KHz\r\nFrame rate                  : 46.875 fps (1024 spf)\r\nCompression mode            : Lossy\r\nDelay relative to video     : -71ms\r\nStream size                 : 82.2 MiB (10%)\r\nTitle                       : .....::::: TaRa :::::.....\r\nLanguage                    : Hindi\r\nDefault                     : Yes\r\nForced                      : No\r\n=================================================================== \nhttps://extraimago.com/image/wZv6 \nhttps://extraimago.com/image/wZvV \nhttps://extraimago.com/image/wZvu \nhttps://extraimago.com/image/wZvv \nhttps://extraimago.com/image/wZvA \nhttps://extraimago.com/image/wZvW \nhttps://extraimago.com/image/wZvf \nhttps://extraimago.com/image/wZA8 \nhttps://extraimago.com/image/wZAa \nhttps://extraimago.com/image/wZAw \nhttps://extraimago.com/image/wZA2 \nhttps://extraimago.com/image/wZAN \nhttps://extraimago.com/image/wZAT \nhttps://extraimago.com/image/wZAj \nhttps://extraimago.com/image/wZAn","torrent":{"xt":"urn:btih:5576f0ca0c8f11b87959ac086cdb287501607a21","amp;dn":"The+Mummy+1999++-+BluRay+x264+720p+in+Hindi+AAC+%5B+TaRa+%5D.mkv","amp;tr":["udp%3A%2F%2Ftracker.leechers-paradise.org%3A6969","udp%3A%2F%2Fzer0day.ch%3A1337","udp%3A%2F%2Fopen.demonii.com%3A1337","udp%3A%2F%2Ftracker.coppersurfer.tk%3A6969","udp%3A%2F%2Fexodus.desync.com%3A6969"],"infoHash":"5576f0ca0c8f11b87959ac086cdb287501607a21","infoHashBuffer":{"type":"Buffer","data":[85,118,240,202,12,143,17,184,121,89,172,8,108,219,40,117,1,96,122,33]},"announce":[],"urlList":[]}}